/* XPM */
static char *fa96616e3f7240e9943dc4d3ed45318f8L8KQxLHSsgi1jiH[] = {
/* columns rows colors chars-per-pixel */
"32 32 256 2 ",
"   c black",
".  c #010101",
"X  c #020202",
"o  c gray1",
"O  c #040404",
"+  c gray2",
"@  c #060606",
"#  c #070707",
"$  c gray3",
"%  c #090909",
"&  c gray4",
"*  c #0B0B0B",
"=  c #0C0C0C",
"-  c gray5",
";  c #0E0E0E",
":  c gray6",
">  c #101010",
",  c #111111",
"<  c gray7",
"1  c #131313",
"2  c gray8",
"3  c #151515",
"4  c #161616",
"5  c gray9",
"6  c #181818",
"7  c #191919",
"8  c gray10",
"9  c #1B1B1B",
"0  c gray11",
"q  c #1D1D1D",
"w  c #1E1E1E",
"e  c gray12",
"r  c #202020",
"t  c gray13",
"y  c #222222",
"u  c #232323",
"i  c gray14",
"p  c #252525",
"a  c gray15",
"s  c #272727",
"d  c #282828",
"f  c gray16",
"g  c #2A2A2A",
"h  c gray17",
"j  c #2C2C2C",
"k  c #2D2D2D",
"l  c gray18",
"z  c #2F2F2F",
"x  c gray19",
"c  c #313131",
"v  c #323232",
"b  c gray20",
"n  c #343434",
"m  c #353535",
"M  c gray21",
"N  c #373737",
"B  c gray22",
"V  c #393939",
"C  c #3A3A3A",
"Z  c gray23",
"A  c #3C3C3C",
"S  c gray24",
"D  c #3E3E3E",
"F  c #3F3F3F",
"G  c gray25",
"H  c #414141",
"J  c gray26",
"K  c #434343",
"L  c #444444",
"P  c gray27",
"I  c #464646",
"U  c gray28",
"Y  c #484848",
"T  c #494949",
"R  c gray29",
"E  c #4B4B4B",
"W  c #4C4C4C",
"Q  c gray30",
"!  c #4E4E4E",
"~  c gray31",
"^  c #505050",
"/  c #515151",
"(  c gray32",
")  c #535353",
"_  c gray33",
"`  c #555555",
"'  c #565656",
"]  c gray34",
"[  c #585858",
"{  c gray35",
"}  c #5A5A5A",
"|  c #5B5B5B",
" . c gray36",
".. c #5D5D5D",
"X. c gray37",
"o. c #5F5F5F",
"O. c #606060",
"+. c gray38",
"@. c #626262",
"#. c gray39",
"$. c #646464",
"%. c #656565",
"&. c gray40",
"*. c #676767",
"=. c #686868",
"-. c DimGray",
";. c #6A6A6A",
":. c gray42",
">. c #6C6C6C",
",. c #6D6D6D",
"<. c gray43",
"1. c #6F6F6F",
"2. c gray44",
"3. c #717171",
"4. c #727272",
"5. c gray45",
"6. c #747474",
"7. c gray46",
"8. c #767676",
"9. c #777777",
"0. c gray47",
"q. c #797979",
"w. c gray48",
"e. c #7B7B7B",
"r. c #7C7C7C",
"t. c gray49",
"y. c #7E7E7E",
"u. c gray50",
"i. c #808080",
"p. c #818181",
"a. c gray51",
"s. c #838383",
"d. c #848484",
"f. c gray52",
"g. c #868686",
"h. c gray53",
"j. c #888888",
"k. c #898989",
"l. c gray54",
"z. c #8B8B8B",
"x. c gray55",
"c. c #8D8D8D",
"v. c #8E8E8E",
"b. c gray56",
"n. c #909090",
"m. c gray57",
"M. c #929292",
"N. c #939393",
"B. c gray58",
"V. c #959595",
"C. c gray59",
"Z. c #979797",
"A. c #989898",
"S. c gray60",
"D. c #9A9A9A",
"F. c #9B9B9B",
"G. c gray61",
"H. c #9D9D9D",
"J. c gray62",
"K. c #9F9F9F",
"L. c #A0A0A0",
"P. c gray63",
"I. c #A2A2A2",
"U. c gray64",
"Y. c #A4A4A4",
"T. c #A5A5A5",
"R. c gray65",
"E. c #A7A7A7",
"W. c gray66",
"Q. c #A9A9A9",
"!. c #AAAAAA",
"~. c gray67",
"^. c #ACACAC",
"/. c gray68",
"(. c #AEAEAE",
"). c #AFAFAF",
"_. c gray69",
"`. c #B1B1B1",
"'. c #B2B2B2",
"]. c gray70",
"[. c #B4B4B4",
"{. c gray71",
"}. c #B6B6B6",
"|. c #B7B7B7",
" X c gray72",
".X c #B9B9B9",
"XX c gray73",
"oX c #BBBBBB",
"OX c #BCBCBC",
"+X c gray74",
"@X c gray",
"#X c gray75",
"$X c #C0C0C0",
"%X c #C1C1C1",
"&X c gray76",
"*X c #C3C3C3",
"=X c gray77",
"-X c #C5C5C5",
";X c #C6C6C6",
":X c gray78",
">X c #C8C8C8",
",X c gray79",
"<X c #CACACA",
"1X c #CBCBCB",
"2X c gray80",
"3X c #CDCDCD",
"4X c #CECECE",
"5X c gray81",
"6X c #D0D0D0",
"7X c gray82",
"8X c #D2D2D2",
"9X c LightGray",
"0X c gray83",
"qX c #D5D5D5",
"wX c gray84",
"eX c #D7D7D7",
"rX c #D8D8D8",
"tX c gray85",
"yX c #DADADA",
"uX c gray86",
"iX c gainsboro",
"pX c #DDDDDD",
"aX c gray87",
"sX c #DFDFDF",
"dX c gray88",
"fX c #E1E1E1",
"gX c #E2E2E2",
"hX c gray89",
"jX c #E4E4E4",
"kX c gray90",
"lX c #E6E6E6",
"zX c #E7E7E7",
"xX c gray91",
"cX c #E9E9E9",
"vX c #EAEAEA",
"bX c gray92",
"nX c #ECECEC",
"mX c gray93",
"MX c #EEEEEE",
"NX c #EFEFEF",
"BX c gray94",
"VX c #F1F1F1",
"CX c gray95",
"ZX c #F3F3F3",
"AX c #F4F4F4",
"SX c gray96",
"DX c #F6F6F6",
"FX c gray97",
"GX c #F8F8F8",
"HX c #F9F9F9",
"JX c gray98",
"KX c #FBFBFB",
"LX c gray99",
"PX c #FDFDFD",
"IX c #FEFEFE",
"UX c white",
/* pixels */
"p.r.7.3.4.6.7.7.4.7.r.g.b.M.n.x.-.1.k.k.d.a.2.7.5.4.8.7.,.4.y.a.",
"t.e.9.8.9.9.9.9.4.7.w.p.g.l.x.c.%.<.k.k.d.i.3.7.9.7.w.t.9.q.t.w.",
"u.y.u.d.l.v.v.c.B.B.m.k.u.0.7.8.1.0.n.B.N.N.z.b.-.-.6.t.r.r.w.4.",
"a.t.w.u.k.m.m.b.k.x.c.g.e.6.5.8.9.e.f.l.c.b.v.n.-.>.q.a.u.t.w.4.",
"a.8.;.;.4.0.8.3.-.1.8.9.5.3.4.7.l.f.r.e.y.u.p.y.u.a.x.b.d.u.y.q.",
"s.q.1.>.3.6.4.<.,.1.4.5.6.6.6.7.M.x.w.q.r.e.p.w.i.p.k.k.y.e.i.i.",
"p.s.d.d.a.p.i.i.8.3.<.4.e.f.z.c.p.s.6.0.0.5.r.7.7.4.0.q.5.9.i.p.",
"e.g.n.n.g.t.e.y.f.q.>.>.9.d.x.c.t.g.r.p.r.2.q.3.q.5.6.7.5.q.p.u.",
"y.d.x.M.m.h.q.2.5.9.5.3.9.8.5.0.2.5.3.0.k.n.v.n.M.x.k.c.m.k.7.@.",
"u.a.g.x.c.h.r.6.3.8.5.2.6.5.4.0.e.0.3.8.k.m.v.v.x.c.v.b.z.p.5.;.",
"3.3.6.e.p.a.y.w.r.u.q.5.7.4.2.8.t.8.-.>.y.h.s.a.7.9.9.5.<.2.0.i.",
"6.6.7.0.e.y.i.i.r.r.5.1.8.8.4.8.u.q.,.>.e.i.r.r.6.6.5.1.>.1.0.u.",
"v.v.c.h.p.y.i.s.y.r.6.9.h.b.x.c.d.d.r.w.a.d.i.s.c.v.n.m.c.a.3.%.",
"b.n.b.l.a.t.t.u.i.y.8.w.z.M.b.b.t.i.e.q.u.y.e.u.c.z.z.b.m.j.6.$.",
"u.u.u.i.i.t.q.8.6.7.<.,.8.9.4.6.5.5.,.>.7.8.4.7.q.7.5.8.r.i.y.w.",
"u.r.w.y.s.a.0.<.7.w.8.5.8.6.3.8.6.3.=.=.6.0.6.6.7.8.0.w.e.t.i.p.",
"t.i.l.x.M.l.,.=.M.l.<.5.t.t.g.q.u.y.l.k.l.b.j.c.k.b.c.z.b.c.k.c.",
"r.i.z.z.b.j.1.,.l.j.9.r.i.e.a.0.t.i.n.m.m.N.x.n.B.N.z.l.N.V.n.M.",
"i.t.r.5.9.q.<.8.q.w.1.2.3.5.p.a.:.1.i.p.u.y.5.8.5.6.4.e.c.v.s.t.",
"s.e.8.>.4.0.2.0.2.5.5.7.7.8.y.p.%.*.0.e.y.p.8.9.5.5.2.q.l.x.i.e.",
"u.t.s.s.c.x.7.5.5.e.z.M.m.j.0.2.*.&.7.t.k.B.c.b.B.v.u.q.p.d.a.f.",
"0.q.a.d.v.c.9.7.6.0.z.n.m.x.0.5.2.,.9.e.f.n.z.v.v.c.s.y.p.y.0.w.",
"<.3.q.9.u.a.8.y.5.2.y.r.y.d.e.a.j.f.x.h.d.h.i.f.e.d.k.v.N.j.7.,.",
"#.<.y.u.a.s.q.d.8.5.d.y.t.d.w.d.v.v.C.x.p.y.0.i.w.a.g.c.M.f.<.@.",
"p.r.8.6.6.7.6.4.q.5.9.4.5.q.5.0.c.n.v.h.e.6.5.7.4.7.9.7.5.7.e.i.",
"w.q.0.8.6.4.5.5.8.4.0.6.6.0.1.4.z.b.b.h.w.5.7.e.6.7.7.8.9.w.r.t.",
"i.f.l.x.z.z.v.m.c.j.v.g.p.u.4.5.0.r.y.8.:.*.,.7.e.q.w.u.h.c.b.v.",
"t.a.k.c.v.v.v.b.B.b.N.k.a.i.6.8.2.5.5.2.>.,.5.q.p.u.y.a.l.n.N.B.",
"u.u.i.a.a.u.q.6.q.7.r.7.4.7.1.7.i.y.t.i.f.l.x.c.p.y.e.0.9.w.t.i.",
"p.u.y.u.i.t.9.3.<.,.q.8.7.0.4.0.f.p.u.d.c.M.b.z.r.w.8.5.4.6.0.e.",
"5.6.7.8.9.9.7.6.1.6.j.l.k.j.r.y.y.e.w.y.s.s.t.8.0.8.6.9.r.i.a.a.",
"3.6.8.6.4.2.4.6.+.>.j.M.N.m.p.u.i.i.i.a.a.t.7.<.9.5.3.8.u.s.i.e."
};
