/* XPM */
static char *_011ca9fc4e84605aa4d320bcc3f61941N1ZzDF9gxiYs3RQ[] = {
/* columns rows colors chars-per-pixel */
"16 16 198 2 ",
"   c #7E7E7E",
".  c #767676",
"X  c #767777",
"o  c #767979",
"O  c #818181",
"+  c #90908F",
"@  c #8D8C8C",
"#  c #6E6D6D",
"$  c gray55",
"%  c gray51",
"&  c #707676",
"*  c #747777",
"=  c #757676",
"-  c gray49",
";  c gray50",
":  c gray54",
">  c #8C8A8A",
",  c #8D8383",
"<  c #8C8C8B",
"1  c #8D8E8E",
"2  c #888D8D",
"3  c #787B7B",
"4  c #8B8B8B",
"5  c #8E8E8E",
"6  c #8A8989",
"7  c #786565",
"8  c #7F7373",
"9  c #6F6E6E",
"0  c #757878",
"q  c #7A6F6F",
"w  c #912222",
"e  c #796D6D",
"r  c #826E6E",
"t  c #8C8080",
"y  c #797878",
"u  c #7D8080",
"i  c #887878",
"p  c #DB1515",
"a  c #981718",
"s  c #7D7777",
"d  c #7E8181",
"f  c #808080",
"g  c #7E7C7C",
"h  c #7F7272",
"j  c #676F6F",
"k  c #837677",
"l  c #DD1616",
"z  c #951919",
"x  c #7C7777",
"c  c #747B7B",
"v  c #816D6E",
"b  c #7A6D6D",
"n  c #787778",
"m  c #7E7F7F",
"M  c #8D8D8D",
"N  c #767A7A",
"B  c #757979",
"V  c #7D6D6D",
"C  c #7B6E6E",
"Z  c #7E6D6D",
"A  c #776B6C",
"S  c #777474",
"D  c #948383",
"F  c #908685",
"G  c #888D8C",
"H  c #8B8E8E",
"J  c #888888",
"K  c gray43",
"L  c #777777",
"P  c #807E7E",
"I  c #807777",
"U  c #8B6C6D",
"Y  c #E20D0D",
"T  c #A80E0E",
"R  c #776868",
"E  c #798181",
"W  c #766665",
"Q  c #E20E0E",
"!  c #AC1211",
"~  c #7B7271",
"^  c #787979",
"/  c #706F6F",
"(  c gray48",
")  c #878F8F",
"_  c #827B7B",
"`  c #AA1D1D",
"'  c #A41211",
"]  c #9D0A0B",
"[  c #970707",
"{  c #8B1817",
"}  c #7C7B7B",
"|  c #7D7978",
" . c #990C0C",
".. c #900E0E",
"X. c #8A8282",
"o. c #8B8D8D",
"O. c #888787",
"+. c #6D6D6D",
"@. c #828080",
"#. c #8A7777",
"$. c #827474",
"%. c #796A6A",
"&. c #7A6C6C",
"*. c #756D6D",
"=. c #766E6E",
"-. c #776E6E",
";. c #7E6C6C",
":. c #716666",
">. c #757171",
",. c #787171",
"<. c gray47",
"1. c #797A7A",
"2. c #877777",
"3. c #DC1818",
"4. c #961515",
"5. c #6C6A69",
"6. c #868E8E",
"7. c #777878",
"8. c #797F7F",
"9. c #8A7171",
"0. c #E10D0D",
"q. c #AA0F0F",
"w. c #8D7C7C",
"e. c #8B8A8A",
"r. c #806C6C",
"t. c #796D6C",
"y. c #747171",
"u. c #7A7070",
"i. c #A0191A",
"p. c #970606",
"a. c #910706",
"s. c #8E1B1B",
"d. c #787474",
"f. c #777C7C",
"g. c #7D8282",
"h. c #898E8F",
"j. c #7A6E6D",
"k. c #8E1F1F",
"l. c #6B6767",
"z. c #757272",
"x. c #8C8383",
"c. c #958484",
"v. c #808282",
"b. c #818281",
"n. c #7D7C7C",
"m. c #7A7F7E",
"M. c #777070",
"N. c #7F7E7E",
"B. c #7F8080",
"V. c #7E8080",
"C. c #8F8383",
"Z. c #938788",
"A. c #8E7575",
"S. c #DF1010",
"D. c #981111",
"F. c #8D7C7D",
"G. c #898A8A",
"H. c #757473",
"J. c #7F6C6C",
"K. c #776D6D",
"L. c #767575",
"P. c #757777",
"I. c #776E6F",
"U. c #A81A1B",
"Y. c #E50909",
"T. c #AA0909",
"R. c #9B0808",
"E. c #950808",
"W. c #8D1B1A",
"Q. c #7A7372",
"!. c #828181",
"~. c #878C8B",
"^. c #807070",
"/. c #DB1416",
"(. c #931718",
"). c #7C7676",
"_. c #7D7E7E",
"`. c #747575",
"'. c #7B6565",
"]. c #960E0D",
"[. c #91100F",
"{. c #796A69",
"}. c #807878",
"|. c #817575",
" X c #7E7D7D",
".X c #766A6A",
"XX c #777676",
"oX c #7C7F7F",
"OX c #7F7979",
"+X c #8C8585",
"@X c #8B8C8C",
"#X c gray46",
"$X c #707575",
"%X c #6B6E6E",
"&X c #808181",
"*X c #7F8282",
"=X c #757474",
"-X c white",
/* pixels */
"  . . X o O + @ # $ % . & * = - ",
";   : > , < 1 2 3 4 5 6 7 8   . ",
"- 9 0 q w e X r t y u i p a s d ",
"O 4 f g h j k l z x c X v b n - ",
"m M $ N B V C Z A S D F G H J K ",
"L y P I U Y T R E W Q ! ~ ^ / ( ",
"@ ) _ ` ' ] [ { } |  ...X.o.O.+.",
"@.#.$.%.&.*.=.-.;.:.>.,.<.1.O ; ",
"2.3.4.5.6.7.8.9.0.q.w.H e.4 5 M ",
"P r.t.y.e . u.i.p.a.s.d.f.y $ % ",
"- g.h.j.k., o.e l.z.x.c.x.v.b.- ",
"+.n.f m.M.N.B.V.C.Z.A.S.D.F.G.+.",
"- L H.J.K.L.P.I.U.Y.T.R.E.W.Q.V.",
"!.~.^./.(.)._.`.'.].[.{.}.|.6 1 ",
"  B. X;..XXXX . oXOX+X@Xd 0 <.f ",
"#X#X= $X%X4 M ; N.&X*XL =X=X- ; "
};
