/* XPM */
static char *_f7e7a9a2749430bbd52ebb5276ce5afWDxtInf9VaoLfsd2[] = {
/* columns rows colors chars-per-pixel */
"16 16 229 2 ",
"   c #DC6F1B",
".  c #D65911",
"X  c #D6560F",
"o  c #DC6F1D",
"O  c #E89D3A",
"+  c #E69736",
"@  c #DF7C22",
"#  c #D5550E",
"$  c #CC3E08",
"%  c #D0480C",
"&  c #D35410",
"*  c #D65712",
"=  c #D86518",
"-  c #DA6917",
";  c #DF7621",
":  c #DA6919",
">  c #D85F14",
",  c #D86114",
"<  c #E07C23",
"1  c #DC711C",
"2  c #DD741E",
"3  c #D3550F",
"4  c #DD7422",
"5  c #DF8129",
"6  c #D65913",
"7  c #D75E13",
"8  c #E18129",
"9  c #E59536",
"0  c #E4892E",
"q  c #E17E27",
"w  c #E07C25",
"e  c #D96415",
"r  c #D4580E",
"t  c #D1500C",
"y  c #CE4309",
"u  c #D24E0C",
"i  c #D55A11",
"p  c #D3530E",
"a  c #DB6E1D",
"s  c #DD7823",
"d  c #D4540F",
"f  c #D65810",
"g  c #E59034",
"h  c #F7DB68",
"j  c #ECB74C",
"k  c #E17D26",
"l  c #DB6C1A",
"z  c #D5570D",
"x  c #D2500A",
"c  c #CF4A08",
"v  c #CF4409",
"b  c #D75D14",
"n  c #DD751F",
"m  c #DB6D1A",
"M  c #D2500D",
"N  c #CC4809",
"B  c #D24E0B",
"V  c #DA6717",
"C  c #ECAC44",
"Z  c #EEB94E",
"A  c #ECB147",
"S  c #DA701B",
"D  c #D5550F",
"F  c #D2510B",
"G  c #D45710",
"H  c #DF7D26",
"J  c #E48C2E",
"K  c #DF7B22",
"L  c #D96315",
"P  c #D76014",
"I  c #DA6718",
"U  c #E69A37",
"Y  c #E08528",
"T  c #E28E2D",
"R  c #D86716",
"E  c #D3560F",
"W  c #D65B11",
"Q  c #D3550D",
"!  c #D4560E",
"~  c #DC711F",
"^  c #E38E30",
"/  c #E18429",
"(  c #D76113",
")  c #D86214",
"_  c #E1852D",
"`  c #DC7821",
"'  c #D45610",
"]  c #DA6A1B",
"[  c #DA6C1B",
"{  c #DE7922",
"}  c #D86313",
"|  c #D86516",
" . c #D86314",
".. c #DC6E1D",
"X. c #E69837",
"o. c #E9A741",
"O. c #DC761F",
"+. c #CF470C",
"@. c #DA691B",
"#. c #E69D3B",
"$. c #DF8127",
"%. c #D14F0C",
"&. c #DB6918",
"*. c #DE7621",
"=. c #D76115",
"-. c #D55D13",
";. c #D5580F",
":. c #DF7925",
">. c #EDB24B",
",. c #ECB349",
"<. c #DF7F26",
"1. c #CE470C",
"2. c #D24F0E",
"3. c #D3530D",
"4. c #CA3E07",
"5. c #D5540F",
"6. c #D5560F",
"7. c #DD731E",
"8. c #E1852C",
"9. c #DB6E1B",
"0. c #D3540D",
"q. c #D25410",
"w. c #E0812A",
"e. c #E48C30",
"r. c #DA6D19",
"t. c #CE470A",
"y. c #CA4007",
"u. c #CD4307",
"i. c #D4560F",
"p. c #D3540F",
"a. c #CC4107",
"s. c #D04B0A",
"d. c #D75C12",
"f. c #E4882E",
"g. c #E59535",
"h. c #E69534",
"j. c #DA6617",
"k. c #CF4808",
"l. c #D3530C",
"z. c #D75E14",
"x. c #D04C0A",
"c. c #CB3907",
"v. c #C93705",
"b. c #D2500F",
"n. c #EAAC47",
"m. c #E9A541",
"M. c #D15310",
"N. c #D2510E",
"B. c #DE7722",
"V. c #E2892F",
"C. c #E38E31",
"Z. c #EAA440",
"A. c #D3510F",
"S. c #D14E0C",
"D. c #CB3E08",
"F. c #C73606",
"G. c #CC3D08",
"H. c #CD4007",
"J. c #D76015",
"K. c #F0C151",
"L. c #EAAA43",
"P. c #D2530E",
"I. c #D14D0B",
"U. c #DB711E",
"Y. c #D4550F",
"T. c #D86318",
"R. c #D76116",
"E. c #E28629",
"W. c #E69434",
"Q. c #D44F0F",
"!. c #C93706",
"~. c #CE450A",
"^. c #D24F0D",
"/. c #DC6D1B",
"(. c #D65F13",
"). c #D04A0A",
"_. c #D2500E",
"`. c #D6580F",
"'. c #D24F0B",
"]. c #D65B12",
"[. c #E89A38",
"{. c #EBAC45",
"}. c #D55A13",
"|. c #CB4207",
" X c #D24F0C",
".X c #D76013",
"XX c #DD741F",
"oX c #D3540C",
"OX c #CA3C06",
"+X c #CB3B07",
"@X c #D96818",
"#X c #EAAB44",
"$X c #E2882C",
"%X c #D96A18",
"&X c #D86416",
"*X c #CE4208",
"=X c #CE440A",
"-X c #D96616",
";X c #DF7E25",
":X c #D4570E",
">X c #CF460A",
",X c #D75F14",
"<X c #E99F3D",
"1X c #EEB74C",
"2X c #ECAF47",
"3X c #E07E26",
"4X c #D14C0A",
"5X c #CA3C07",
"6X c #CC3F08",
"7X c #D65D12",
"8X c #DA6719",
"9X c #E08329",
"0X c #D96516",
"qX c #D75A11",
"wX c #E07D27",
"eX c #E27E25",
"rX c #DF7A22",
"tX c #E69938",
"yX c #E3842A",
"uX c #D96719",
"iX c #D4530E",
"pX c #D0430B",
"aX c #CF4209",
"sX c #D55810",
"dX c #E69433",
"fX c #E08027",
"gX c #D85B12",
"hX c #D96416",
"jX c white",
/* pixels */
"  . X o O + @ # $ % & * =   - ; ",
"; : > , < 1 2 3 & 4 5 6 7 8 9 0 ",
"q w e r t y u i p a s d f g h j ",
"k l z x c v b n m M N B V C Z A ",
"S 3 D F B G H J K L P p I U Y T ",
"R E W Q ! ~ ^ / ( ) _ ` ' ] [ { ",
"} i |  ...X.o.O.+.@.#.$.%.&.*.l ",
"=.-.i ;.:.>.,.<.1.2.l 3.4.M 5.6.",
"7.8.9.0.q.w.e.r.t.y.u.i.p.a.s.d.",
"f.g.h.j.k.l.z.x.c.v.b.n.m.M.N.B.",
"V.C.Z.~ A.S.D.F.G.H.J.K.L.P.I.U.",
"Y.7 T.R.E.W.Q.!.~.S.^./.(.a.)._.",
"P `.'.].[.{.}.|. X.XXXoXOX+X3.@X",
"#X$X7 I %X&X*X=Xf -X;X:X X>X,X<X",
"1X2X3X$X .4X5X6Xs.3.7X8X9X0XqXV.",
"wXeXrXtXyXuXiXpXaX).sXw dXfXgXhX"
};
