/* XPM */
static char *_4c1b9313fb2482b8698fc852fd31b51C3qiLdGEuEEJq0cP[] = {
/* columns rows colors chars-per-pixel */
"16 16 251 2 ",
"   c #180000",
".  c #1C0000",
"X  c #1B0900",
"o  c #1E0800",
"O  c #38260E",
"+  c #3C260F",
"@  c #4F3115",
"#  c #523719",
"$  c #642E16",
"%  c #7D3C1C",
"&  c #5A382E",
"*  c #5F3E2F",
"=  c #5F3D31",
"-  c #603620",
";  c #613E2B",
":  c #603E32",
">  c #66412F",
",  c #634135",
"<  c #624036",
"1  c #674337",
"2  c #654435",
"3  c #6C4936",
"4  c #67453B",
"5  c #69473B",
"6  c #69473D",
"7  c #6D493D",
"8  c #754A37",
"9  c #704F3E",
"0  c #7C513E",
"q  c #715041",
"w  c #735241",
"e  c #745342",
"r  c #755445",
"t  c #775645",
"y  c #7A5743",
"u  c #7A5A45",
"i  c #785947",
"p  c #7C5945",
"a  c #7D5A47",
"s  c #7C5C47",
"d  c #7C5B48",
"f  c #7D5D48",
"g  c #7C5D49",
"h  c #7F5C49",
"j  c #7E5F4D",
"k  c #7F604E",
"l  c #8B351A",
"z  c #833C1C",
"x  c #803F21",
"c  c #903B27",
"v  c #814219",
"b  c #83431F",
"n  c #854522",
"m  c #864527",
"M  c #894224",
"N  c #894926",
"B  c #8B4428",
"V  c #834A2F",
"C  c #914B27",
"Z  c #90502D",
"A  c #9A483A",
"S  c #9B5436",
"D  c #9F573E",
"F  c #A04A33",
"G  c #A44E37",
"H  c #A34D3C",
"J  c #A66933",
"K  c #A4643E",
"L  c #AE703D",
"P  c #805F4C",
"I  c #A55D44",
"U  c #AD5B4F",
"Y  c #B45D4A",
"T  c #80604B",
"R  c #82634F",
"E  c #83644F",
"W  c #826351",
"Q  c #856451",
"!  c #856654",
"~  c #8A6753",
"^  c #876856",
"/  c #886955",
"(  c #8B6C5A",
")  c #8F6C58",
"_  c #906552",
"`  c #946956",
"'  c #9A6F5C",
"]  c #A96943",
"[  c #AC6D41",
"{  c #B16A4A",
"}  c #B0684F",
"|  c #AF7045",
" . c #B97544",
".. c #B37449",
"X. c #BE764E",
"o. c #AF6C5B",
"O. c #AF6C5C",
"+. c #A8715C",
"@. c #BA7554",
"#. c #BE7854",
"$. c #997A66",
"%. c #A47B67",
"&. c #A27C67",
"*. c #A67868",
"=. c #A37F69",
"-. c #A47E69",
";. c #A87F6B",
":. c #B37367",
">. c #B77D65",
",. c #B87668",
"<. c #C46E4B",
"1. c #C5714C",
"2. c #C47D4F",
"3. c #CD7957",
"4. c #CD765A",
"5. c #C17B59",
"6. c #CA7463",
"7. c #D17A69",
"8. c #CF7B70",
"9. c #D17E70",
"0. c #BF8150",
"q. c #B6845F",
"w. c #A4806A",
"e. c #A5816B",
"r. c #AB806D",
"t. c #A9856F",
"y. c #AF8A77",
"u. c #B58473",
"i. c #B28774",
"p. c #B48575",
"a. c #BC8C76",
"s. c #CE8A5D",
"d. c #D98465",
"f. c #D18B67",
"g. c #D9826F",
"h. c #DB856C",
"j. c #D28074",
"k. c #DB8576",
"l. c #DC8675",
"z. c #C09F7C",
"x. c #CC997A",
"c. c #D59071",
"v. c #D89372",
"b. c #E28E6C",
"n. c #E38E79",
"m. c #C39885",
"M. c #CF9D86",
"N. c #E49680",
"B. c #E79685",
"V. c #EE9D82",
"C. c #F39E81",
"Z. c #F29E86",
"A. c #CDA582",
"S. c #CBA08F",
"D. c #D3A081",
"F. c #D2A183",
"G. c #D6A481",
"H. c #D8A586",
"J. c #D4A986",
"K. c #D7A58A",
"L. c #DFA28F",
"P. c #D5AA88",
"I. c #DFAD8C",
"U. c #CEB18F",
"Y. c #D3B38A",
"T. c #D2B58D",
"R. c #CEA392",
"E. c #C6AD97",
"W. c #CAB69E",
"Q. c #DABC96",
"!. c #D7B399",
"~. c #D2B39F",
"^. c #DAB19D",
"/. c #E8A288",
"(. c #EFA18B",
"). c #F6A58A",
"_. c #E0AE93",
"`. c #E5AD94",
"'. c #EDA996",
"]. c #F9A895",
"[. c #E3B69F",
"{. c #EDB09D",
"}. c #E4BB9D",
"|. c #DABFA4",
" X c #DBBCA7",
".X c #DCBCA7",
"XX c #E4BDA0",
"oX c #E1B8A6",
"OX c #E3BAA6",
"+X c #E6BEA4",
"@X c #E8BAA3",
"#X c #ECB8A2",
"$X c #EDBEA4",
"%X c #E1BBA8",
"&X c #E8BEA8",
"*X c #F1B9A2",
"=X c #F5B7A8",
"-X c #F7BAA8",
";X c #D5C5AC",
":X c #DBC5AD",
">X c #D9CBB1",
",X c #DFCBB3",
"<X c #EDCDA6",
"1X c #E5C1A9",
"2X c #E6C3AF",
"3X c #ECC3AF",
"4X c #E0C8AE",
"5X c #F4C1AC",
"6X c #F5C2AD",
"7X c #F6C2AC",
"8X c #F5C5AE",
"9X c #FCC6AE",
"0X c #E8C5B1",
"qX c #EBC7B1",
"wX c #E2CAB2",
"eX c #E3CBB3",
"rX c #E4C8B0",
"tX c #E0CFB5",
"yX c #F4C7B4",
"uX c #FAC6B1",
"iX c #FBC7B1",
"pX c #FFC3B7",
"aX c #FAC7B4",
"sX c #F2C9B5",
"dX c #F8CBB6",
"fX c #FDCAB5",
"gX c #F9CCB7",
"hX c #FFCCB5",
"jX c #FFCCB7",
"kX c #F4CBB9",
"lX c #F2CFB9",
"zX c #F2CDBA",
"xX c #FFC8B9",
"cX c #FBCEBB",
"vX c #FDCDB9",
"bX c #EBD3B7",
"nX c #EDD1BB",
"mX c #ECD2BB",
"MX c #EAD9BF",
"NX c #F0D6BF",
"BX c #FDD0BB",
"VX c #FFD0BC",
"CX c #FFD2BE",
"ZX c #FFD3C0",
"AX c #FFD4C0",
"SX c #FFD7C3",
"DX c #EFE1C7",
"FX c #FFFAD4",
"GX c #FFFBD4",
"HX c #FFFBE3",
"JX c #FFFDE4",
/* pixels */
"j k ^ ( u W e w 2 = 5 : 4 : q & ",
"W g ! / g E d P t 9 r 9 7 : : : ",
"$.E Q s g T g u y p g P > ; : 8 ",
"~ ) y.=.w.w.t.-.&.;.%.;.` _ 8 - ",
"0 i.ZXBXvXdXSXZXvXfX8XxX7X#X+.$ ",
"' m.cXdXyXBXZXaX5XuXiX9X*X`.>.V ",
"2X0XzXqX%XqX&X&X[.@X8X$X_.F.D.x.",
"wXwXmXmX X X.XzX1X!.+XXX}.A.P.P.",
";XDXJX;XX O ,X:X4XbX#   U.GXQ.T.",
",XDXJXW.o + E.NX2X|.@ . z.GX<XY.",
" XoXzXoXM.R.%.p.u.a.M.K.H.I.G.q.",
"L.'.-X=XxXpX:.,.o.o.'.hX/.c.v.@.",
"Z.N.].B.A U j.8.9.k.Y G h.C.d.3.",
").V.Z.n.c H k.6.7.g.F l 4.b.<.1.",
"#.f.#.} M B D I } S z C X.s.2. .",
"..| ] ] n m m n % Z b v [ 0.L J "
};
