/* XPM */
static char *fb1aaf65f99847c1eca75ab9f853db54Fq0LTo5tOsoKWDmQ[] = {
/* columns rows colors chars-per-pixel */
"32 32 144 2 ",
"   c #6C6161",
".  c #676C6C",
"X  c #6A6A6A",
"o  c #726363",
"O  c #7A6565",
"+  c #766D6D",
"@  c #7B6D6D",
"#  c #76716F",
"$  c #757575",
"%  c #7F7676",
"&  c #747877",
"*  c #757778",
"=  c #757878",
"-  c #7E7E7E",
";  c #8F0707",
":  c #8F0807",
">  c #8D0B0A",
",  c #940201",
"<  c #9B0202",
"1  c #900907",
"2  c #9A0807",
"3  c #950709",
"4  c #930C0C",
"5  c #9C090A",
"6  c #8C1212",
"7  c #931111",
"8  c #A60404",
"9  c #AF0303",
"0  c #A60B0B",
"q  c #AC0B0B",
"w  c #B40A0A",
"e  c #A31314",
"r  c #AF1515",
"t  c #EF0607",
"y  c #ED0807",
"u  c #EF0608",
"i  c #EE0D0C",
"p  c #F20303",
"a  c #F10708",
"s  c #F50909",
"d  c #F10A0A",
"f  c #EE100F",
"g  c #EC0F10",
"h  c #EE0F10",
"j  c #ED0F11",
"k  c #ED1111",
"l  c #EE1010",
"z  c #EE1110",
"x  c #EE1111",
"c  c #EC1414",
"v  c #8A6F6E",
"b  c #8B6F6F",
"n  c #896E6E",
"m  c #807675",
"M  c #807676",
"N  c #817776",
"B  c #807677",
"V  c #817677",
"C  c #807777",
"Z  c #817777",
"A  c #837676",
"S  c #837776",
"D  c #827777",
"F  c #857775",
"G  c #867776",
"H  c #877776",
"J  c #817677",
"K  c #887676",
"L  c #887677",
"P  c #817877",
"I  c #827877",
"U  c #857877",
"Y  c #827877",
"T  c #877778",
"R  c #827878",
"E  c #80797A",
"W  c #867878",
"Q  c #807E7E",
"!  c #807E7F",
"~  c #807C7D",
"^  c #887878",
"/  c #887979",
"(  c #927D7D",
")  c #907D7E",
"_  c #80807F",
"`  c #7B8282",
"'  c #7B8383",
"]  c #7C8080",
"[  c #7D8080",
"{  c #7D8081",
"}  c #7D8181",
"|  c #7E8080",
" . c #7E8181",
".. c #7F8181",
"X. c #7F8281",
"o. c #7E8282",
"O. c #7F8282",
"+. c #7E8181",
"@. c #808080",
"#. c #818080",
"$. c #818181",
"%. c #808080",
"&. c #8E8484",
"*. c #8E8584",
"=. c #8F8585",
"-. c #8E8686",
";. c #8E8585",
":. c #8F8788",
">. c gray54",
",. c #8F8989",
"<. c #8C8B8B",
"1. c #8D8B8C",
"2. c #8B8C8C",
"3. c #8A8E8E",
"4. c gray55",
"5. c #8D8C8C",
"6. c #8D8D8D",
"7. c #8E8C8C",
"8. c #8E8D8C",
"9. c #8E8D8D",
"0. c #8C8E8E",
"q. c #8D8E8E",
"w. c #8E8E8E",
"e. c #8F8E8E",
"r. c #8E8F8F",
"t. c gray56",
"y. c #8D8D8D",
"u. c #908686",
"i. c #908786",
"p. c #918786",
"a. c #908787",
"s. c #928686",
"d. c #958484",
"f. c #948686",
"g. c #988686",
"h. c #908988",
"j. c #8C8F90",
"k. c #8C9090",
"l. c #8D9090",
"z. c #8D9191",
"x. c #8E9090",
"c. c #8D9190",
"v. c #909090",
"b. c #909090",
/* pixels */
"- - $ $ $ $ $ $ $ $ - @.9.v.v.9.X X 9.x.| - $ $ $ $ $ $ $ $ - - ",
"- - $ $ $ $ $ $ $ $ - @.9.9.9.2.X X 9.x.@._ & $ # $ $ $ $ $ - - ",
"- | ! @.9.9.9.9.x.x.9.j.v.x.v.9.$ $ 9.v.9.t.9.2.X . | | - - $ $ ",
"@.- - - 9.9.9.9.a.h.9.9.9.9.9.9.$ * 9.9.t.9.t.5.o o % P - - $ $ ",
"- - X X $ $ * @ 7 7 @ * * $ $ = 9.9.$ $ @.@._ H g u 5 7 N | - - ",
"- - X X $ $ & + 7 4 + $ $ $ @ @ -.-.$ $ - ! _ K x y 2 7 % - - - ",
"- @.9.9.- - | - N % X X - K f a 4 6 N | $ $ $ $ @ @ + @ $ $ - @.",
"| @.9.v.@.@.@.- - - X X - K f a 3 6 N - * $ $ $ * * * * $ $ - - ",
"- @.9.v.x.9.$ $ $ $ $ $ * * @ @ + @ $ * 2.t.x.x.9.9.9.9.j.9.X X ",
"- - 9.9.9.9.$ $ $ $ @ @ @ @ $ $ & $ # $ f.g.h.h.9.9.9.9.9.<.X X ",
"$ $ $ $ - | | | | H i a q 7 + & - - . o x s q e @ & $ $ X X - - ",
"* $ $ * - - P P - b a p 9 0 O # - - . o y p 9 0 @ & $ $ X X - - ",
"h.x.x.9.O.R r w 0 0 < < < < ; 6 % | - N 5 < , > -.x.9.v.1.>.X X ",
"x.t.h.9.| R r w 0 0 4 4 4 4 : 6 % - - % 7 3 > 6 -.x.9.h.9.9.X X ",
"@.@.| | @.| @ + @ @ + + + + + + $ $ . X + + + @ $ $ $ * @.@.- = ",
"_ ! W U R R $ $ $ * $ $ $ & $ $ @ @     $ & & * $ $ $ $ ! @.@.@.",
"| H d a 5 4   . <.<.$ $ - - ] H x a q e a.x.9.9.9.9.x.x.9.9.9.j.",
"| U f a 2 7   . <.<.$ $ - | R n a p 9 0 ( h.9.j.h.j.v.h.v.v.9.9.",
"| _ @ @ + + $ $ $ * $ $ $ + e 0 , , , , : 6 @ * * $ $ = 9.v.@.@.",
"_ - $ & & & $ $ + @ $ $ * @ e 0 > > > > : 6 + $ $ $ $ $ 9.9.@.@.",
"- - - ! 9.>.$ + 4 7 &.2.9.1.@ +     + + -.:.j.j.x.9.| - @.@.| | ",
"- - - @.9.9.* + 7 7 -.x.9.9.* $ X X $ = 9.x.g.f.-.a.@.| @.@.- - ",
"X X - @.@.@.- - + + | @.@.@.- | t.2.x.9.O.W x y 4 6 :.x.9.9.X X ",
"X X - _ - - - - * $ - - - - | | ,.h.f.f.R K y t < > ( h.9.9.X X ",
"- = $ $ $ $ $ $ $ $ $ $ $ $ $ + e w d d q 0 8 < , , : 6 # * - - ",
"@._ $ $ $ $ @ @ + + $ $ $ $ $ + e q p p 9 8 3 4 4 4 ; 6 @ * ! | ",
"! @.9.9.$ @ g a 3 6 % _ - - $ + + O 4 , ; : O # H R R R 9.t.9.9.",
"_ @.9.9.* @ g a 3 6 % - - - $ $ & # 6 > > 6 # * | | | | 2.9.t.9.",
"- - | - ! - @ @ + + $ $ $ $ $ $ - - % P -.,.5.5.! - $ $ $ $ | @.",
"- - - - _ - & $ $ $ $ $ $ $ $ $ - _ | @.t.t.9.9.! - $ $ $ $ - _ ",
"$ $ $ $ $ $ $ $ X X 2.x.<.<.- - - _ _ - ! - $ $ $ $ $ $ - - - _ ",
"$ $ # $ $ $ $ $ X . 9.v.v.h.@.| - - _ - - - $ $ $ $ $ $ _ ! | - "
};
