/* XPM */
static char *_f8a39e55c0741e3b30f78f6209b1a05IuFnSp6cVFmE8PH6[] = {
/* columns rows colors chars-per-pixel */
"32 32 125 2 ",
"   c #C73606",
".  c #C93706",
"X  c #CA3C07",
"o  c #CB3D08",
"O  c #CC4107",
"+  c #CF4A07",
"@  c #CE440A",
"#  c #CF490A",
"$  c #D0440B",
"%  c #D14C0B",
"&  c #D3530D",
"*  c #D5590F",
"=  c #D55611",
"-  c #D65B11",
";  c #D85D13",
":  c #D76214",
">  c #D96415",
",  c #DA6917",
"<  c #D96619",
"1  c #DB6C1A",
"2  c #DC721D",
"3  c #DE791F",
"4  c #DE7622",
"5  c #DE7F27",
"6  c #DF7F27",
"7  c #DE7C24",
"8  c #DE7A23",
"9  c #E07521",
"0  c #E07722",
"q  c #E07823",
"w  c #E07923",
"e  c #E07A22",
"r  c #E07B23",
"t  c #E17C25",
"y  c #E07D25",
"u  c #E07E24",
"i  c #E07F24",
"p  c #E07D26",
"a  c #E17D26",
"s  c #E07F26",
"d  c #E17E27",
"f  c #E17F27",
"g  c #E17E25",
"h  c #DF8024",
"j  c #DF822A",
"k  c #DF8329",
"l  c #E28126",
"z  c #E18227",
"x  c #E18627",
"c  c #E08127",
"v  c #E18129",
"b  c #E0832A",
"n  c #E2832A",
"m  c #E18728",
"M  c #E0852B",
"N  c #E3842B",
"B  c #E0852C",
"V  c #E2842C",
"C  c #E2862C",
"Z  c #E2852B",
"A  c #E1882D",
"S  c #E3882E",
"D  c #E5882E",
"F  c #E58A2E",
"G  c #E28D2C",
"H  c #E28E2D",
"J  c #E48C2E",
"K  c #E58D2F",
"L  c #E28A2E",
"P  c #E3912F",
"I  c #E48F32",
"U  c #E38D31",
"Y  c #E39330",
"T  c #E49033",
"R  c #E59034",
"E  c #E59435",
"W  c #E69437",
"Q  c #E69737",
"!  c #E79737",
"~  c #E59334",
"^  c #E89737",
"/  c #E79937",
"(  c #E89937",
")  c #E79A38",
"_  c #E6993A",
"`  c #E69A3A",
"'  c #E79C39",
"]  c #E79C3A",
"[  c #E79C3A",
"{  c #E89B39",
"}  c #E89E3C",
"|  c #E89F3C",
" . c #E99E3B",
".. c #E7A03E",
"X. c #E8A03B",
"o. c #E8A33D",
"O. c #EAA23F",
"+. c #E9A13E",
"@. c #E7A340",
"#. c #E9A642",
"$. c #ECAB44",
"%. c #ECAD45",
"&. c #ECAE46",
"*. c #ECAF46",
"=. c #EBAB45",
"-. c #ECAF48",
";. c #EAB147",
":. c #EBB047",
">. c #EDB248",
",. c #ECB349",
"<. c #EDB349",
"1. c #EBB549",
"2. c #EDB449",
"3. c #ECB54B",
"4. c #EDB44B",
"5. c #ECB84D",
"6. c #EFB94E",
"7. c #EFBA50",
"8. c #EFBB50",
"9. c #F1C454",
"0. c #F3CD5A",
"q. c #F8E06B",
"w. c #F9E36E",
"e. c #F8E46E",
"r. c #FAE671",
/* pixels */
"2 1 - = = = 1 2  .o. .Q u 3 * & . . $ $ % & = = < < 1 1 < > 3 4 ",
"2 1 = = = = 1 2 ' X.Q ~ u 4 * & o o $ % = = = - < < 4 1 , , 0 q ",
"q 4 , , > ; ; ; l z 2 2 7 3 * & = = 4 4 j j - = - : 6 V U T M N ",
"q q , , > ; ; > q u , , 3 3 & & = = 4 8 A j - - - : 5 S ` { D D ",
"f g l i > > = * & & @ @ % % - - % & 1 4 6 7 = % * - N T q.w.3.;.",
"f g g l > > = * % % O o % # - - % & 1 2 8 4 & & = ; D W w.r.5.3.",
"f g 1 , * & & % + + @ @ - ; 2 2 1 1 & % @ @ % & ; , $.>.8.5.3.>.",
"f g , , * & & % % $ @ @ ; > 3 4 2 1 % # @ O % & > , $.3.3.>.>.%.",
"2 2 * & * * % + % % & * 8 6 K K u q , : : : # & > ,  .o.M z P P ",
"2 1 * % = * & & & & = = 6 b U K 7 0 , < < < & & > < {  .u u G P ",
", , & & * : & & & & 1 2 G G m M : : - : h C 4 3 = = , 1 1 , 7 u ",
", < & & - * & & * = 2 4 T T m z : * - : C A 7 3 = % < , , , 3 4 ",
": : - = < , < : , 1 I W =.@.3 1 % @ , 2 ....A z % % 1 1 8 8 1 1 ",
", : - - < , : : 1 4 W _ =.#.3 2 @ @ > 2  .X.M u % % 1 1 4 q 1 1 ",
": : * - - * = - 4 d 6.6.5.;.C 7 $ $ % = 1 2 * * o o = = & * = = ",
": : - - * * & - 4 6 4.6.3.;.M 7 # @ $ % , < & + X o % % % % = * ",
"1 1 C C 1 , & & & = V C T K 2 , # @ @ @ O @ & & % % o o # % - - ",
"3 3 U G 2 1 & = # % 8 u D M 2 , # @ X @ o o * * = * O O # # ; : ",
"N C E E Q U , ; # # & * < > & + o       $ & #.&.#.o.= % % & 4 q ",
"N U E E / E 1 : # # & & - - + @ X     X $ = <.6.>.#.= # = & 4 u ",
"I I U T -.=.4 1 & # # # o o     o o o @ = > 9.0.3.#.- # # % 4 4 ",
"S U A U =.#.4 1 = % & & o .     o o @ @ - < 9.9.&.@.& % # % 1 3 ",
"& = ; ; < < ; : z k W I = $ . . @ @ % % @ % , 2 < : O O % # % = ",
"& & - - ; ; ; > m A } ` = % . . @ $ = % % % < < * & O o # % % % ",
"- - = * & & * - ^ X.6.>.; * O O % % * ; 3 3 * & O X X X % & < < ",
": < - - % & * ; ^ X.>.$.= & @ O & * - : 4 3 & % X X X o & & , , ",
"=.#.M z - = , , 1 1 , > @ O $ $ * * : < b z * % # # # @ - ; ..#.",
";.;.G M ; - 1 < : : : ; @ o O $ - ; : < h z * & & & # # * > @.$.",
"6.8.6.2.u q U D > * % % X . o o % % & * - : > > b b < ; * = U ~ ",
"6.2.6.>.u q T U : - % % . X o o $ + & % - - > , m m , , & * C U ",
"u q l g 4 4 ' ' N N , > * & $ $ $ $ % % = - q z Q T z u ; * < < ",
"8 q e q 3 4 ' ' D N 1 , * & $ o $ o % + & - u l ~ W N f ; = : > "
};
