/* XPM */
static char *_a45ccaaf5154b9092fe36369c77e39e9eeyJqQ34md3j5PL[] = {
/* columns rows colors chars-per-pixel */
"32 32 150 2 ",
"   c #573217",
".  c #5D3415",
"X  c #5A351B",
"o  c #5E391D",
"O  c #633714",
"+  c #603815",
"@  c #603719",
"#  c #633B1D",
"$  c #6A3F1E",
"%  c #563820",
"&  c #5E3B22",
"*  c #633E23",
"=  c #683F22",
"-  c #6F411D",
";  c #70421E",
":  c #654125",
">  c #6B4324",
",  c #654329",
"<  c #6A452A",
"1  c #6D492C",
"2  c #714626",
"3  c #734B27",
"4  c #784A26",
"5  c #724B2C",
"6  c #7D4F2B",
"7  c #7F512F",
"8  c #674931",
"9  c #6F4B31",
"0  c #734E32",
"q  c #794F31",
"w  c #6F523B",
"e  c #765135",
"r  c #7B5334",
"t  c #7C5836",
"y  c #75533A",
"u  c #7A563B",
"i  c #7D593C",
"p  c #745741",
"a  c #7D5740",
"s  c #755943",
"d  c #7E5B42",
"f  c #7A5E48",
"g  c #81532F",
"h  c #815533",
"j  c #845936",
"k  c #895B37",
"l  c #805739",
"z  c #835B3C",
"x  c #8A5C3B",
"c  c #8C623F",
"v  c #835E42",
"b  c #885F41",
"n  c #866144",
"m  c #8C6444",
"M  c #8D6947",
"N  c #876448",
"B  c #8B664A",
"V  c #8D694C",
"C  c #916544",
"Z  c #946A46",
"A  c #936B4B",
"S  c #996E4C",
"D  c #9C714E",
"F  c #8D6750",
"G  c #8D6A51",
"H  c #936D52",
"J  c #957154",
"K  c #9A7353",
"L  c #96725A",
"P  c #9B755A",
"I  c #9F7A5D",
"U  c #A27553",
"Y  c #A67A57",
"T  c #A97B57",
"R  c #A37B5C",
"E  c #A97D5C",
"W  c #9F7C60",
"Q  c #9A7F6B",
"!  c #A37E63",
"~  c #A87F61",
"^  c #A7815D",
"/  c #AE805C",
"(  c #AF815D",
")  c #AF815F",
"_  c #AE825F",
"`  c #AC805D",
"'  c #B1805F",
"]  c #9D836F",
"[  c #A38060",
"{  c #A58163",
"}  c #A38064",
"|  c #A58065",
" . c #A58066",
".. c #A68166",
"X. c #A78267",
"o. c #A78466",
"O. c #A78064",
"+. c #A88160",
"@. c #AB8262",
"#. c #AD8260",
"$. c #AD8262",
"%. c #AB8561",
"&. c #AC8662",
"*. c #AD8763",
"=. c #A98265",
"-. c #A98467",
";. c #AC8564",
":. c #AF8464",
">. c #AD8665",
",. c #AE8766",
"<. c #AB8364",
"1. c #AE8864",
"2. c #AD8967",
"3. c #A58169",
"4. c #AB8669",
"5. c #AA856B",
"6. c #AB866B",
"7. c #AD8669",
"8. c #AC876C",
"9. c #AC8569",
"0. c #AB8868",
"q. c #AD886D",
"w. c #AC896D",
"e. c #AD886E",
"r. c #AE896E",
"t. c #AE896D",
"y. c #B38261",
"u. c #B08362",
"i. c #B08461",
"p. c #B38561",
"a. c #B28463",
"s. c #B28663",
"d. c #B18666",
"f. c #B28767",
"g. c #B28766",
"h. c #B58966",
"j. c #B38967",
"k. c #B18769",
"l. c #B38868",
"z. c #B18A6B",
"x. c #B58A6A",
"c. c #B38B6C",
"v. c #BA8E6B",
"b. c #BC8E6C",
"n. c #BA8F6F",
"m. c #AE8C71",
"M. c #B48D71",
"N. c #B39074",
"B. c #B69272",
"V. c #BB9070",
/* pixels */
"Z D Z Z 2.2.V J e n N J i y J M i e G H a u ,   u u 5.! b u 8.m.",
"Z Z M D 2.z.H M u u G V t i M J t d K V r 0 = > q B =.=.v z P 9.",
"3 c _ 2.P M t i   : w.N.o.^ 0 e m D ^ ^ U A 6 g $.$.A S A C 2 $ ",
"t c ^ ^ S m r e , 1 I { [ ] t t A U &.&.U Z x k u.l.C C U Z # O ",
"^ I R n 1 : - , X.L N d M P ^ 2.( ( v.( h 4 c Z g g $ $ ' T k g ",
"_ ^ R c > # X : w.X.u u M H 0.0.v.' ' T x k U S k g $ $ u.E C g ",
"K M c n { -.n y J H : & y t J D ( E k c T T S C E y.a.R U Z C C ",
"M M N M 0.-.i y V V : : y t V S &.c.r 7 l.$.S K E b.a.y.S S Z S ",
"J J t e L P ! e., * F H # o t e A P   = v r H N h b H A > & r u ",
"M M i e F B ! 5.* * b B < 5 t t V V * & y a v B y z F H = * v a ",
"d e , : u v L F u 0 v b z J R -.& , y y H F * & & * y y % , W e.",
"t 1 * * y u L F v v y u A P $.c.< < 0 y L L , < * * p u & , ! m.",
"J M f 0 : X y a L P = * q z E c.5.} b N ! M.! ! 0 u F H u y L H ",
"J G i 1 w : a u ! ! = = l v R k.w.c.v B M.M.M.9.v B v b b b A F ",
"s w o , P } m.5.a v v F ~ R b z K A @ = b A K S ~ R 5 2 b b r z ",
"t e * 1 ] 0.w.X.v y L H 9.c.q q Z C = > C S A A c.R # @ A H l q ",
"A K R &.z v A K M J z 1 v r   > h g A b # = q b F A u y , * u y ",
"m J ,.,.r r m J J n n e u v o = h l U A 2 = 4 r K F a y * * u f ",
"m c A A $ $ r e @ # =.z.{ o.t r C A y.T h 2 = * 0 u V H B G G H ",
"x l A C $ < z i # < +.c.,.&.m l D K k.~ B r > * z u L K H L B G ",
"5 r J S 5 6 I d.z.Y t t Z K E E ~ ~ M.M.<.R H m A B =.=.! I N v ",
"5 5 m m x m +.n.c.j.j h C S s.n.9.~ 9.9.8.c.P H H K 9.c.! K z 5 ",
"A m x z R <.z.$.C U E T c j C C H V H H H H l r c.9.K B 5 # = @ ",
"H M z h &.d.d.+.S C h.E h j Z S b N H F H F z z ~ <.K m 2 . < = ",
"l C ,.R K S C P # . S D ^ h.t h * * c.M.r y v r > * r z <.c.9.~ ",
"z c ,.E S J z C $ $ A K E &.h r * < ! ! N v 0 r o # r z R ~ k.c.",
"l r K A r t > > r q t i A P A J 5 y H K k.! > * r v 9.9.R K K H ",
"t r C Z r 5 1 $ e i e u G J V N z b H L ~ R 5 * 0 q ! <.F N H A ",
"Z C > > # - I P e u * , p w 8 * ! R x.~ m z N A < : a u o * 0 a ",
"D S . . $ 5 5.w.f s & % w p 8 * k.~ b.~ 6 5 S L # o 0 y * 1 y a ",
"m Z h c ^ R J V F F s f Q Q p w K Z D S 2 $ r q M H L G y y & & ",
"D C h t =.N.V H L G s p Q ] p a H S S x > # q i H L H G a y % & "
};
