/* XPM */
static char *c54cec702a184d87b1b7e3d5027285e2BG9Z9twftlSbUSKj[] = {
/* columns rows colors chars-per-pixel */
"32 32 225 2 ",
"   c #040001",
".  c #0C0101",
"X  c #0E0C0F",
"o  c #150300",
"O  c #150C08",
"+  c #19110F",
"@  c #2B1A14",
"#  c #35221C",
"$  c #46241B",
"%  c #602D0E",
"&  c #653111",
"*  c #78341B",
"=  c #593B2D",
"-  c #543A2F",
";  c #643924",
":  c #653D2B",
">  c #7F3B21",
",  c #7E3E2A",
"<  c #703E23",
"1  c #663F32",
"2  c #5C4235",
"3  c #574032",
"4  c #65442D",
"5  c #6C422C",
"6  c #794529",
"7  c #654433",
"8  c #6B4334",
"9  c #6C483B",
"0  c #67453A",
"q  c #724937",
"w  c #78553F",
"e  c #5F4F47",
"r  c #7C5543",
"t  c #7C5A44",
"y  c #7E5E4B",
"u  c #765C46",
"i  c #674F44",
"p  c #7E624D",
"a  c #7B6E6A",
"s  c #823E29",
"d  c #863E25",
"f  c #834125",
"g  c #85432C",
"h  c #8B432C",
"j  c #844432",
"k  c #8B4B34",
"l  c #874935",
"z  c #944E3A",
"x  c #914B32",
"c  c #84583D",
"v  c #925A37",
"b  c #9B5638",
"n  c #A15C3C",
"m  c #AD633C",
"M  c #B5653E",
"N  c #C4713D",
"B  c #825744",
"V  c #845C42",
"C  c #8C5E45",
"Z  c #845D4D",
"A  c #885E50",
"S  c #9D5A49",
"D  c #A45C4C",
"F  c #A85F50",
"G  c #856046",
"H  c #84614D",
"J  c #88624F",
"K  c #856351",
"L  c #896453",
"P  c #856A55",
"I  c #8C6956",
"U  c #866D59",
"Y  c #8A6D59",
"T  c #916A57",
"R  c #8B715B",
"E  c #AA6142",
"W  c #B26643",
"Q  c #BB6C4D",
"!  c #B66945",
"~  c #AF6E5C",
"^  c #B76D52",
"/  c #BA7353",
"(  c #B87458",
")  c #BA7844",
"_  c #9F7E6D",
"`  c #877261",
"'  c #A87C68",
"]  c #B87460",
"[  c #CA6C4D",
"{  c #CD7B45",
"}  c #C2754C",
"|  c #CA754C",
" . c #C3794D",
".. c #CD7A49",
"X. c #C77545",
"o. c #CC6F50",
"O. c #C27655",
"+. c #C7775A",
"@. c #D27659",
"#. c #D57A5E",
"$. c #D47554",
"%. c #C37661",
"&. c #C87C66",
"*. c #D27A62",
"=. c #DB7E65",
"-. c #BF8458",
";. c #9E826D",
":. c #A1806F",
">. c #A98B77",
",. c #B58A73",
"<. c #BC9275",
"1. c #BB937C",
"2. c #CA804A",
"3. c #C38054",
"4. c #CC865B",
"5. c #DD8A5C",
"6. c #D4845A",
"7. c #E2905E",
"8. c #E0895C",
"9. c #C2836D",
"0. c #CF816C",
"q. c #C68565",
"w. c #DA8D6A",
"e. c #D68469",
"r. c #CC9569",
"t. c #DB966A",
"y. c #C88B78",
"u. c #DA8972",
"i. c #C69276",
"p. c #D39A73",
"a. c #D99978",
"s. c #E38A67",
"d. c #E29264",
"f. c #E3936D",
"g. c #E49B67",
"h. c #E39C75",
"j. c #E49D7A",
"k. c #E99E79",
"l. c #E19774",
"z. c #CEA07E",
"x. c #DCA279",
"c. c #E3A376",
"v. c #E3A27C",
"b. c #EAA27B",
"n. c #F0A27C",
"m. c #9A9593",
"M. c #AA8C84",
"N. c #BB9583",
"B. c #BC9A86",
"V. c #B99984",
"C. c #AB9089",
"Z. c #AFA29C",
"A. c #E49F80",
"S. c #C2A28C",
"D. c #DCA68A",
"F. c #D3A48B",
"G. c #D9AC98",
"H. c #DDB39A",
"J. c #C9A995",
"K. c #E2A483",
"L. c #EBA381",
"P. c #E3AA8C",
"I. c #EDAD8B",
"U. c #E5A986",
"Y. c #EAAF92",
"T. c #E3AE95",
"R. c #E4B493",
"E. c #EBB393",
"W. c #E3B69D",
"Q. c #EAB59C",
"!. c #E7B99B",
"~. c #F4BA9D",
"^. c #FFBE9F",
"/. c #F4B698",
"(. c #F1B094",
"). c #DEAEA0",
"_. c #DAB8A4",
"`. c #CFB4A9",
"'. c #E3B6A1",
"]. c #E5BBA3",
"[. c #EBBCA4",
"{. c #E4BDAB",
"}. c #EBBCAC",
"|. c #E8B7A4",
" X c #F6BDA6",
".X c #EBBEB1",
"XX c #EAC2A6",
"oX c #E5C1AC",
"OX c #EBC4AC",
"+X c #E8C5AB",
"@X c #FCC5A5",
"#X c #F1C4AC",
"$X c #F4C9AB",
"%X c #FBCAAC",
"&X c #FBC4A8",
"*X c #E5C2B3",
"=X c #EAC4B4",
"-X c #EECAB3",
";X c #E6C5BA",
":X c #EBC6B9",
">X c #EDC9BB",
",X c #F4C5B2",
"<X c #F3CAB3",
"1X c #FECCB2",
"2X c #F3CCBA",
"3X c #FDC7B6",
"4X c #FDD2B5",
"5X c #F4D1BD",
"6X c #FCD5BC",
"7X c #F5D0B6",
"8X c #F2CCC1",
"9X c #F2D2C3",
"0X c #FAD6C1",
"qX c #FCDAC5",
"wX c #F8DBCC",
"eX c #FFE5CC",
"rX c #FFE8D6",
"tX c #FFF2DC",
"yX c #FFF8DF",
"uX c #FFEDE2",
"iX c #FFF2E5",
"pX c #FFF5EB",
"aX c #FFF9ED",
"sX c #FFFBF3",
"dX c #FFFCF8",
/* pixels */
"p p p H K K K L A A A Z B B r r 1 8 5 5 4 2 7 4 9 4 1 1 0 - 2 2 ",
"p p p K K K L A A Z Z Z r r r r 1 6 5 7 4 4 7 9 7 4 0 9 0 1 2 2 ",
"u u u p K L L K Z Z Z y r r r r 5 < 5 4 4 4 4 7 9 4 7 1 1 = - - ",
"R R R Y Y K K A K A Z H A Z Z Z B V c w t t t t q 9 7 q 9 0 i i ",
"P U U U K L L I Z Z Z Z Z K K A C C C C V G G J w 8 : 1 0 1 = 2 ",
"R R R R Y Y T R K p H L I I I I C C C V G G G G B q 1 8 9 7 7 0 ",
"U P P p P H Z w r r t t Z y p y C c c c w G w G < ; ; , 8 : = 4 ",
"P U R ;.1.S.B.1.V.1.N.V.N.B.B.N.y.<.i.<.<.<.<.<.,.' ' ' J q 4 7 ",
"P P y J.rX5X5XqX6X6X5XeXqXqXqXqX4X4X4X4X4X4X4X4X3X X X,XF.; < ; ",
"U U p S.qX-X+X-X7X7X7X7X5X5X9X2X%X%X$X$X$X$X$X4XQ.D.Y. XF.< 6 5 ",
"p K p S.qX6X6X6X7X7X-X5X5X5X9X5X%X,X$X$X$X$X%X%X%XY.Y./.i.& % & ",
"_ :.:.J.7X+X+X-X-X-X-X-X2X5X9X5X#X$XXX$X$X7X%X%X@XP.P.Y.a.v v v ",
":X=X=X2X0X,X<X<XXXXXoXoXoX=X;X=X'.'.W.].XXXX$X$XT.A.a.K.I.p.c.x.",
"=X*X=X:X<X#XOX$XXXXXXXoX+X*X.X=X'.W.W.].XX$X$X@X/.K.v.h.v.v.U.c.",
":X;X>X,X,X<X$X$X].XXXXoX=X=X:X=X{.].].].+X$X$X&XY.c.h.h.g.c.h.t.",
"=X{.:X:X:X5X5X*XH.`._._.oX=X=X,X].'.H._._.].oX].'.D.D.U.D.D.x.v.",
"8X;X;XuXuXpXsXZ.O @ . - .X}. X X X#X_.9Xi o @ O a pXrXpXeXG.G.G.",
">X;X;XrXpXsXdXm.  X   # 8X}. X X1X#X*XwXe   X   a sXpXiXiX_.G._.",
">X2X>XtXsXsXdXm.. + . # 8X.X/.(.~.Q.#XqX2 . O . e aXaXtXrXH.F.H.",
",X<X=XwXiXpXuXZ.. . . $ ). X X X@X@X%XOX7 o o o ` iXyXyXeXR.R.!.",
"].|.W.,X6X8X9X`.M.C.M.N.N.&.u.u.4.r.9.i.,.>.>.>.B.].R.R.U.r.r.-.",
"P.P.D.Q.[.'.{..X9X8X8X.X~ ^ [ ! ! } / ( G.6X<X6X!.z.p.c.t.-.4.M ",
"K.I.U.T././.}..X.X}.}.Q.( +.@.$.[ [ O.^ p.[.T.!.R.r.c.c.g.{ 2.2.",
"v.I.I.I. X X X X X X8X(.] [ [ o.$.M Q ( K.3X&X&X/.x.g.g.g.2.2.2.",
"K.b.b.b.I.I./.a.] N.&.&.=.*.o.$.*.*.*.&.&.] 9.q.4.c.d.7.7.{ { N ",
"b.j.c.h.b.h.A.( * s s z %.=.#.s.=.=.&.&.D s s > W t.w.8.8.{ { X.",
"b.h.b.k.b.k.L.%.s z s z 0.u.*.*.=.=.=.=.E j h g E t.d.d.8.X.....",
"j.l.k.k.n.b.L.&.d s s S 0.u.*.e.*.=.N.&.F s h f ! p.f.d.s.X.| o.",
"j.t.t.t.f.w.l.O.d k s S ~ %.^ *.%.%.%.%.S l k f m e.6.6.$.X.} } ",
"^ ^ Q W W m Q z s S s s s s d d s d s l j 6 g f b 3. . . .M ! M ",
"( /  .Q ! W O.D s s l s s z s z z d s z j 6 v f n 3. . .) m M m ",
"^ / / Q W m Q b B s s B l s S d d s s l j 6 k 6 b 3. . . .m ! m "
};
